<svg version="1.0" xmlns="http://www.w3.org/2000/svg"
 width="237.000000pt" height="41.000000pt" viewBox="0 0 237.000000 41.000000"
 preserveAspectRatio="xMidYMid meet">

<g transform="translate(0.000000,41.000000) scale(0.100000,-0.100000)"
fill="#000000" stroke="none">
<path d="M170 309 c-93 -37 -114 -150 -40 -213 42 -35 83 -41 127 -19 44 22
70 56 80 103 6 32 5 34 -10 21 -9 -7 -17 -22 -17 -33 0 -11 -13 -33 -29 -49
-65 -64 -171 -20 -171 71 0 33 6 48 31 72 28 29 34 30 85 25 60 -6 71 5 23 22
-38 13 -46 13 -79 0z"/>
<path d="M257 225 c-45 -35 -47 -35 -72 -19 -22 14 -25 14 -25 1 0 -8 11 -22
25 -31 24 -16 27 -15 80 24 50 37 68 60 46 60 -4 0 -29 -16 -54 -35z"/>
<path d="M640 248 c0 -4 9 -8 20 -8 11 0 20 4 20 8 0 4 -9 8 -20 8 -11 0 -20
-4 -20 -8z"/>
<path d="M1263 253 c-18 -7 -27 -67 -14 -92 23 -43 79 -14 67 34 -5 18 -13 25
-31 25 -33 0 -32 13 3 27 21 8 23 11 7 11 -11 0 -25 -2 -32 -5z m35 -72 c-5
-40 -35 -39 -40 2 -3 30 -1 33 20 29 18 -4 22 -10 20 -31z"/>
<path d="M440 195 l0 -56 33 3 c31 3 32 4 32 53 0 49 -1 50 -32 53 l-33 3 0
-56z m48 28 c-5 -26 -38 -29 -38 -4 0 15 6 21 21 21 14 0 19 -5 17 -17z m7
-53 c0 -8 -10 -16 -22 -18 -18 -3 -23 2 -23 18 0 16 5 21 23 18 12 -2 22 -10
22 -18z"/>
<path d="M1162 238 c-16 -16 -16 -70 0 -86 7 -7 23 -11 38 -11 24 2 24 2 2 6
-50 10 -50 86 0 96 21 4 21 4 -2 6 -15 0 -31 -4 -38 -11z"/>
<path d="M1525 198 c0 -52 1 -53 29 -53 36 0 56 26 37 49 -8 9 -22 16 -32 16
-30 0 -22 28 9 33 23 3 22 4 -8 6 l-35 1 0 -52z m53 -10 c8 -8 9 -15 1 -25
-18 -21 -39 -15 -39 12 0 27 18 33 38 13z"/>
<path d="M2103 195 c0 -33 2 -45 4 -27 2 18 2 45 0 60 -2 15 -4 0 -4 -33z"/>
<path d="M2150 195 c0 -52 2 -55 24 -55 32 0 56 25 56 59 0 35 -17 51 -52 51
-27 0 -28 -1 -28 -55z m60 26 c16 -31 -5 -70 -37 -71 -9 0 -13 16 -13 45 0 38
3 45 20 45 10 0 24 -9 30 -19z"/>
<path d="M545 216 c-34 -25 0 -88 39 -73 24 10 22 73 -4 80 -10 3 -26 -1 -35
-7z m43 -33 c-3 -31 -32 -43 -41 -18 -9 23 3 45 25 45 15 0 19 -6 16 -27z"/>
<path d="M1725 219 c-19 -7 -19 -8 3 -8 22 -1 32 -21 10 -21 -6 0 -3 -6 8 -14
17 -13 18 -15 2 -21 -9 -4 -22 -4 -28 0 -5 3 -10 1 -10 -5 0 -6 12 -10 28 -8
23 3 27 8 29 40 2 39 -10 50 -42 37z"/>
<path d="M631 181 c-1 -37 1 -42 14 -31 8 6 18 22 22 33 6 19 8 18 14 -13 6
-34 6 -34 7 10 l1 45 -24 -29 -23 -29 -5 29 c-3 22 -4 18 -6 -15z"/>
<path d="M722 213 c11 -3 18 -17 21 -41 l4 -37 1 37 c1 25 7 38 20 41 9 3 -1
5 -23 5 -22 0 -32 -2 -23 -5z"/>
<path d="M802 180 l-1 -45 24 30 25 30 0 -27 c0 -16 5 -28 10 -28 6 0 10 18
10 40 0 47 -12 51 -37 13 l-18 -27 -6 29 c-6 25 -7 23 -7 -15z"/>
<path d="M930 180 c0 -22 5 -40 10 -40 6 0 10 16 10 35 0 24 5 35 15 35 10 0
15 -11 15 -35 0 -19 5 -35 10 -35 6 0 10 18 10 40 0 39 -1 40 -35 40 -34 0
-35 -1 -35 -40z"/>
<path d="M1024 206 c-3 -8 -4 -25 -2 -38 2 -18 9 -23 33 -23 28 0 30 3 30 35
0 31 -3 35 -28 38 -17 2 -29 -2 -33 -12z m51 -26 c0 -16 -6 -26 -18 -28 -19
-4 -32 20 -23 44 9 25 41 13 41 -16z"/>
<path d="M1342 183 c3 -33 7 -38 31 -41 15 -2 27 1 27 6 0 5 -10 8 -21 8 -12
-1 -24 5 -26 12 -3 8 6 12 25 12 25 0 29 3 25 20 -4 14 -14 20 -35 20 -28 0
-29 -2 -26 -37z m48 17 c0 -5 -9 -10 -20 -10 -11 0 -20 5 -20 10 0 6 9 10 20
10 11 0 20 -4 20 -10z"/>
<path d="M1431 163 c1 -32 4 -49 6 -37 3 16 10 20 28 16 19 -3 25 1 31 22 9
39 -1 56 -36 56 l-30 0 1 -57z m54 37 c10 -16 -5 -50 -21 -50 -17 0 -28 24
-20 45 6 17 32 20 41 5z"/>
<path d="M1620 180 c0 -48 13 -51 37 -7 l17 32 7 -35 6 -35 2 43 c1 48 -12 54
-33 15 l-15 -28 -1 28 c0 15 -4 27 -10 27 -5 0 -10 -18 -10 -40z"/>
<path d="M1790 180 c0 -22 5 -40 10 -40 6 0 10 9 10 20 0 27 28 25 40 -2 7
-19 9 -14 8 22 0 25 -2 37 -5 28 -5 -22 -43 -24 -43 -3 0 8 -4 15 -10 15 -5 0
-10 -18 -10 -40z"/>
<path d="M1887 214 c-12 -12 -8 -51 8 -64 8 -6 22 -10 32 -7 14 4 13 5 -4 6
-33 2 -30 31 3 31 19 0 25 5 22 18 -3 17 -48 29 -61 16z m53 -14 c0 -5 -12
-10 -26 -10 -14 0 -23 4 -19 10 3 6 15 10 26 10 10 0 19 -4 19 -10z"/>
<path d="M1974 206 c-3 -8 -4 -25 -2 -38 2 -18 10 -23 33 -25 19 -1 22 1 8 4
-23 5 -41 40 -26 53 4 4 17 10 28 13 15 3 13 5 -8 6 -16 0 -30 -5 -33 -13z"/>
</g>
</svg>
