<svg width="24" height="24" viewBox="0 0 24 24" fill="none" xmlns="http://www.w3.org/2000/svg">
    <path d="M16.0755 2H19.4615C20.8637 2 22 3.13628 22 4.53852V7.92449C22 9.32673 20.8637 10.463 19.4615 10.463H16.0755C14.6732 10.463 13.537 9.32673 13.537 7.92449V4.53852C13.537 3.13628 14.6732 2 16.0755 2Z" fill="#2A6FEA"/>
    <path d="M4.53852 2H7.92449C9.32673 2 10.463 3.13628 10.463 4.53852V7.92449C10.463 9.32673 9.32673 10.463 7.92449 10.463H4.53852C3.13628 10.463 2 9.32673 2 7.92449V4.53852C2 3.13628 3.13628 2 4.53852 2Z" fill="#2A6FEA"/>
    <path d="M4.53852 13.5371H7.92449C9.32673 13.5371 10.463 14.6734 10.463 16.0756V19.4616C10.463 20.8638 9.32673 22 7.92449 22H4.53852C3.13628 22 2 20.8638 2 19.4616V16.0756C2 14.6734 3.13628 13.5371 4.53852 13.5371Z" fill="#2A6FEA"/>
    <path d="M16.0755 13.5371H19.4615C20.8637 13.5371 22 14.6734 22 19.4616V16.0756C22 14.6734 20.8637 13.5371 19.4615 13.5371H16.0755C14.6732 13.5371 13.537 14.6734 13.537 16.0756V19.4616C13.537 20.8638 14.6732 22 16.0755 22" fill="#2A6FEA"/>
</svg>
